PathFileType	4	(X/Y/Z)	./resultDataOpenSim/trcMotMarkerGrf/sub06/qtm-13-06.trc
DataRate	CameraRate	NumFrames	NumMarkers	Units	OrigDataRate	OrigDataStartFrame	OrigNumFrames
250.000000	250.000000	12	24	m	250.000000	1	534
Frame#	Time	L.Toe.Tip			R.Toe.Tip			L.Ankle.Lat			R.Ankle.Lat			L.Ankle.Med			R.Ankle.Med			L.Heel			R.Heel			L.Knee.Lat			R.Knee.Lat			L.Knee.Med			R.Knee.Med			L.Thigh.Upper			R.Thigh.Upper			L.ASIS			R.ASIS			V.Sacral			L.Acromium			R.Acromium			C7			L.Elbow			R.Elbow			L.Wrist.Lat			R.Wrist.Lat
		X1	Y1	Z1	X2	Y2	Z2	X3	Y3	Z3	X4	Y4	Z4	X5	Y5	Z5	X6	Y6	Z6	X7	Y7	Z7	X8	Y8	Z8	X9	Y9	Z9	X10	Y10	Z10	X11	Y11	Z11	X12	Y12	Z12	X13	Y13	Z13	X14	Y14	Z14	X15	Y15	Z15	X16	Y16	Z16	X17	Y17	Z17	X18	Y18	Z18	X19	Y19	Z19	X20	Y20	Z20	X21	Y21	Z21	X22	Y22	Z22	X23	Y23	Z23	X24	Y24	Z24

1	0	-1.5427655	0.032057699	-0.080317255	-0.93184722	0.12146053	0.1145631	-1.6636675	0.077070423	-0.09071468	-1.0612667	0.086950457	0.13057588	-1.6500291	0.089783927	-0.0075576779	-1.0523448	0.11713794	0.045753535	NaN	NaN	NaN	-1.0971314	0.042216797	0.05954632	-1.4947335	0.41135262	-0.11304233	-1.1918448	0.45400543	0.13636909	-1.5081132	0.41981412	0.0090546541	-1.2061253	0.42944035	0.0059626431	-1.4027207	0.78660297	-0.1784505	-1.3742748	0.78259994	0.16658084	-1.3161036	0.82683701	-0.14131629	-1.2884222	0.83382103	0.10363205	-1.4832102	0.91370023	0.008033392	-1.3211621	1.3220762	-0.19549724	-1.3255198	1.3035879	0.16620097	-1.3987885	1.3514786	-0.01562009	-1.3278771	1.0002022	-0.28406517	-1.4705846	1.0177425	0.22663407	-1.0984181	0.9027272	-0.24066017	-1.3662807	0.80095982	0.25563427
2	0.004	-1.5427534	0.032022734	-0.080332168	-0.91999042	0.12452981	0.11316779	-1.6631769	0.077698084	-0.090938604	-1.0491371	0.087749021	0.12966456	-1.6496541	0.090381564	-0.0076572828	-1.0408785	0.11821541	0.044907262	NaN	NaN	NaN	-1.0844042	0.04239974	0.058792377	-1.4912345	0.41050867	-0.11318786	-1.1850845	0.45278624	0.13598625	-1.5046277	0.41912952	0.0089032507	-1.1994619	0.42787456	0.0052153481	-1.3973325	0.78476821	-0.17824228	-1.3655638	0.78083438	0.16729195	-1.3103531	0.8251297	-0.1415143	-1.2818741	0.83212974	0.10360134	-1.4777766	0.91210651	0.0080877811	-1.3153131	1.3204074	-0.19516328	-1.320108	1.3018535	0.16664557	-1.3931005	1.3499344	-0.015359531	-1.3202002	0.99838935	-0.28364278	-1.4656906	1.0162846	0.22636275	-1.0903038	0.90230923	-0.23966487	-1.3633678	0.79882049	0.25626383
3	0.008	-1.5427447	0.031990605	-0.080351598	-0.90857642	0.12735312	0.11178121	-1.6626711	0.078346832	-0.091180412	-1.0373411	0.08844062	0.12871235	-1.6501101	0.090852514	-0.0075296652	-1.0297085	0.1191998	0.044009087	NaN	NaN	NaN	-1.0720699	0.042578554	0.057954438	-1.4876388	0.40965458	-0.11333269	-1.178177	0.45162834	0.1356237	-1.5010553	0.41838434	0.0087767819	-1.19274	0.42639851	0.0045215785	-1.3919098	0.78301876	-0.17808821	-1.358014	0.77897774	0.16762871	-1.3046159	0.82343611	-0.1417321	-1.2753153	0.83041363	0.10357293	-1.4722409	0.91054447	0.0082222453	-1.3094496	1.3187499	-0.19482168	-1.3146604	1.3001375	0.16708375	-1.3873864	1.3484024	-0.01509727	-1.3125133	0.99660033	-0.28311252	-1.4608215	1.0148516	0.22613833	-1.0822373	0.90185611	-0.23868621	-1.3603871	0.79671451	0.25687782
4	0.012	-1.5427412	0.031961415	-0.080381185	-0.89780196	0.12971498	0.11042639	-1.662138	0.079038298	-0.091446763	-1.0260885	0.088957287	0.12768955	-1.6516699	0.091141285	-0.0071146818	-1.01902	0.12002411	0.043020367	NaN	NaN	NaN	-1.0603663	0.042724292	0.056970766	-1.4838816	0.40878319	-0.1134745	-1.1710441	0.45055363	0.13527517	-1.4973726	0.41757838	0.0086828883	-1.1859153	0.42507267	0.0038931166	-1.3864268	0.78137721	-0.17798871	-1.3516118	0.77703683	0.16760922	-1.2989022	0.82176426	-0.14200071	-1.2687183	0.82869288	0.1035384	-1.4664284	0.90902911	0.0083824475	-1.3035479	1.3171167	-0.19446932	-1.3091427	1.2984419	0.16752692	-1.3816141	1.3468955	-0.014809266	-1.3048106	0.99484101	-0.28241684	-1.4559802	1.0134573	0.22598621	-1.0742355	0.90133868	-0.23773499	-1.3572945	0.79464876	0.25747947
5	0.016	-1.5427403	0.031932911	-0.080420639	-0.88766843	0.13150424	0.10910661	-1.6615723	0.079795861	-0.091735468	-1.0154736	0.089267611	0.12657696	-1.6534773	0.091420417	-0.0066879801	-1.0089047	0.12064504	0.041927783	NaN	NaN	NaN	-1.0493913	0.042788688	0.055823434	-1.4799641	0.40790131	-0.11361789	-1.1637195	0.44955068	0.13491117	-1.4935555	0.41675109	0.0085958899	-1.1789766	0.42392814	0.0033112007	-1.3808825	0.77981965	-0.17791628	-1.3454237	0.77513061	0.16753983	-1.2932144	0.82012527	-0.14233398	-1.262066	0.82700626	0.10348836	-1.4600621	0.90755334	0.0083683298	-1.2975954	1.3155175	-0.19410552	-1.3035388	1.2967655	0.16798822	-1.3757679	1.3454274	-0.014463242	-1.2971287	0.99311749	-0.28160172	-1.451116	1.0120949	0.22588317	-1.0663068	0.90074234	-0.23681396	-1.3541015	0.79261496	0.25807153
6	0.02	-1.5427359	0.031902914	-0.08046307	-0.87812389	0.13273858	0.10776629	-1.6609722	0.080640005	-0.092044735	-1.0055122	0.089353202	0.12535886	-1.6542016	0.091998654	-0.0066498791	-0.99938505	0.12102664	0.040735912	NaN	NaN	NaN	-1.0391639	0.0427195	0.054545176	-1.4759268	0.40702596	-0.11377048	-1.1562788	0.44860092	0.13450032	-1.4895368	0.41591504	0.0084773983	-1.1719184	0.42297681	0.0027594106	-1.3752798	0.77831483	-0.17785075	-1.3386014	0.77339967	0.16766231	-1.287496	0.81852728	-0.14267695	-1.2553545	0.82537215	0.1034202	-1.4529355	0.90609872	0.0080410986	-1.2915851	1.3139535	-0.19372998	-1.2978515	1.2951139	0.16847445	-1.3698551	1.3439988	-0.014073713	-1.2895155	0.99144173	-0.28076485	-1.4461314	1.0107437	0.22577469	-1.0584566	0.90007036	-0.23591897	-1.3508598	0.79061034	0.25864419
7	0.024	-1.5427257	0.03187145	-0.080504336	-0.86914076	0.13347577	0.1063267	-1.6603302	0.081575277	-0.092373983	-0.99619074	0.08919863	0.1240344	-1.653456	0.092986107	-0.0070863429	-0.99044634	0.12113221	0.039454457	NaN	NaN	NaN	-1.0296861	0.042465987	0.053195984	-1.4717995	0.40616887	-0.11393055	-1.1487521	0.44770104	0.13402474	-1.4852633	0.41506252	0.0083094601	-1.164734	0.42222055	0.0022294994	-1.3696171	0.77684264	-0.17777144	-1.3310553	0.77189237	0.16797316	-1.2816546	0.81696262	-0.14293899	-1.2485889	0.82379272	0.10332942	-1.4453111	0.90466614	0.0075859679	-1.2855136	1.3124259	-0.19333926	-1.2921008	1.2934998	0.16899006	-1.3638959	1.3425952	-0.013687359	-1.2819897	0.98981976	-0.27994818	-1.440973	1.0093951	0.22563266	-1.0506956	0.89933686	-0.23504616	-1.3476177	0.78864894	0.25919153
8	0.028	-1.5427118	0.031840275	-0.080545995	-0.86071834	0.13373818	0.10474122	-1.6596235	0.082593748	-0.092721326	-0.98749543	0.088793101	0.12262606	-1.651882	0.094226911	-0.0077629947	-0.98207613	0.12092889	0.038088033	NaN	NaN	NaN	-1.0209619	0.041987904	0.051824979	-1.4675771	0.4053307	-0.11409948	-1.1411147	0.44686659	0.13347933	-1.4807458	0.41419714	0.0080981812	-1.1574205	0.42165342	0.0017126895	-1.3638928	0.77539823	-0.17765679	-1.3233088	0.7705498	0.16831606	-1.2756614	0.81540289	-0.14310677	-1.2417729	0.82226699	0.10320778	-1.4378622	0.90327634	0.0073796538	-1.2793801	1.310938	-0.19292169	-1.2862993	1.2919336	0.169533	-1.3578918	1.3412074	-0.013291889	-1.2745406	0.98825003	-0.27912543	-1.4356667	1.0080595	0.22547181	-1.0430325	0.89855168	-0.23419404	-1.3443742	0.78675134	0.25972122
9	0.032	-1.5426942	0.031810993	-0.08059004	-0.85287046	0.13352355	0.10300398	-1.6588265	0.083688415	-0.093085222	-0.97942202	0.08813226	0.12116421	-1.6501839	0.095530256	-0.0084486621	-0.97428523	0.12039809	0.036634947	NaN	NaN	NaN	-1.0129905	0.041272676	0.050455449	-1.4632391	0.40450886	-0.11429076	-1.1333449	0.4461184	0.13286492	-1.4760412	0.41331702	0.007857956	-1.1499841	0.4212598	0.0012053024	-1.3581093	0.77398986	-0.17750067	-1.3158202	0.76930268	0.16857838	-1.2695831	0.81381838	-0.14326111	-1.2349068	0.82079741	0.10305656	-1.4310167	0.9019317	0.0075482673	-1.2731892	1.3094923	-0.19246571	-1.2804386	1.290417	0.17009506	-1.3518297	1.3398436	-0.012833877	-1.2671548	0.9867314	-0.27826202	-1.4302736	1.0067578	0.22531973	-1.0354667	0.89771368	-0.23336268	-1.3410673	0.78493376	0.26024867
10	0.036	-1.5426686	0.031784384	-0.080636808	-0.84561045	0.13282877	0.10113191	-1.6579358	0.084853945	-0.093468555	-0.97197377	0.087220029	0.1196601	-1.6486662	0.096821708	-0.0090630734	-0.967088	0.11954138	0.035096842	NaN	NaN	NaN	-1.0057628	0.04033577	0.049087097	-1.4587744	0.40370229	-0.11450829	-1.125444	0.44547178	0.13218281	-1.4711892	0.41241368	0.0075967182	-1.1424389	0.42101537	0.00071351148	-1.3522665	0.77262576	-0.17730438	-1.3086429	0.76813518	0.16875352	-1.2634915	0.81221764	-0.14346562	-1.2279822	0.81939178	0.1028906	-1.4245852	0.90060072	0.0079685933	-1.2669515	1.3080939	-0.19197214	-1.2745028	1.2889472	0.17067053	-1.3457189	1.3385147	-0.012328275	-1.2598303	0.98526585	-0.27735096	-1.4248583	1.0055228	0.22519871	-1.0279888	0.89681841	-0.23255364	-1.3376173	0.78320783	0.26078948
11	0.04	-1.5426295	0.031760168	-0.080687405	-0.83893749	0.1316488	0.099148847	-1.6569641	0.0860897	-0.093882754	-0.96514876	0.086075062	0.11809305	-1.6473285	0.098120556	-0.009632871	-0.9604786	0.11837568	0.033484888	NaN	NaN	NaN	-0.99927205	0.039197524	0.047707397	-1.4541802	0.40290925	-0.11474092	-1.1174196	0.44493136	0.13143315	-1.4661792	0.41149176	0.0073125521	-1.1348047	0.42089047	0.00024768745	-1.3463592	0.77130524	-0.17706276	-1.3016648	0.76704798	0.16886802	-1.2573945	0.8106559	-0.14370312	-1.2209793	0.81806008	0.10272798	-1.417986	0.89925074	0.0087525509	-1.2606756	1.3067531	-0.19144839	-1.2684856	1.2875239	0.17125984	-1.339586	1.3372198	-0.011842496	-1.2525725	0.98385655	-0.27640552	-1.4194699	1.0043871	0.22512182	-1.0205817	0.8958671	-0.23176573	-1.3339791	0.78157797	0.26135097
12	0.044	-1.5425734	0.03173725	-0.080745732	-0.83283348	0.12997843	0.097078063	-1.6559176	0.087407506	-0.094345144	-0.95893384	0.084738273	0.11642116	-1.6460513	0.099470846	-0.010213011	-0.95443447	0.11692525	0.031816474	NaN	NaN	NaN	-0.9935194	0.037872553	0.046310472	-1.4494497	0.40212656	-0.11498601	-1.1092881	0.44448551	0.13061938	-1.4609692	0.41056205	0.0070014251	-1.1271088	0.42085774	-0.00018597097	-1.3403813	0.77002595	-0.17677428	-1.2948393	0.76602151	0.16894162	-1.2512615	0.80919258	-0.14391989	-1.2138777	0.8168121	0.1025824	-1.4106714	0.89790213	0.010302034	-1.2543589	1.3054782	-0.19089574	-1.2623913	1.2861507	0.1718675	-1.3334363	1.3359562	-0.01138573	-1.2453849	0.98250465	-0.27543335	-1.414095	1.0033493	0.22508142	-1.0132303	0.89486538	-0.23099225	-1.330136	0.78003736	0.26193147
